<?xml version="1.0" encoding="UTF-8" standalone="no"?><!DOCTYPE svg PUBLIC "-//W3C//DTD SVG 1.1//EN" "http://www.w3.org/Graphics/SVG/1.1/DTD/svg11.dtd"><svg width="100%" height="100%" viewBox="0 0 596 503" version="1.1" xmlns="http://www.w3.org/2000/svg" xmlns:xlink="http://www.w3.org/1999/xlink" xml:space="preserve" xmlns:serif="http://www.serif.com/" style="fill-rule:evenodd;clip-rule:evenodd;stroke-linejoin:round;stroke-miterlimit:2;"><g><g><g><path d="M411.6,424.9c9,-1.3 13.3,6.4 14.6,16.2l166,-98.6l-73.6,-24.2c4.9,6.6 5.5,18.6 1.8,29.2c-5.1,14.9 -17.1,13.7 -17.1,13.7c-41.1,24 -89.4,7.2 -89.4,7.2c-36.9,32.6 -79.4,41.3 -79.4,41.3c24.2,26.3 47.8,36.8 64.7,40.8c-2.6,-10.9 -1.9,-23.5 12.4,-25.6Z" style="fill:#451818;fill-rule:nonzero;"/><path d="M505,313.8l-46.6,-15.3c-6.3,30.6 -30,59.3 -30,59.3c37.5,7 67.1,-11.6 67.1,-11.6c-4.1,-15.8 0.8,-29.4 9.5,-32.4Z" style="fill:#451818;fill-rule:nonzero;"/><path d="M308.6,413.8c0,0 -67.6,17.7 -135.9,-19.5c-35.8,-19.5 -56.1,-38.9 -67.3,-52.8c-55.9,27.2 -101.9,49.9 -101.9,51l319.8,110l62,-36.9c-47,-13.3 -76.7,-51.8 -76.7,-51.8Z" style="fill:#451818;fill-rule:nonzero;"/></g><g opacity="0.5"><g><path d="M496.9,321.5c-19.1,11.4 -40.4,24 -62.5,37.2c8.1,1 15.9,0.8 23,-0.1c13.1,-7.8 25.6,-15.2 36.8,-21.8c-0.4,-5.9 0.7,-11.2 2.7,-15.3Z" style="fill:#9b2424;fill-rule:nonzero;"/><path d="M416.4,369.4c-4.2,2.4 -8.5,5 -12.6,7.5c-12.6,9.6 -25.4,16.6 -36.5,21.6c-9.5,5.6 -18.8,11.1 -28,16.6c3,3 5.9,5.8 8.9,8.3c10.8,-6.4 22.2,-13.1 34.2,-20.3c17.2,-10.2 34.4,-20.4 50.9,-30.1c-7.8,-1.2 -13.8,-2.7 -16.9,-3.6Z" style="fill:#9b2424;fill-rule:nonzero;"/><path d="M320.2,426.3c-31.7,18.7 -60,35.3 -80.3,47.2l14.6,5c3.8,-2.1 7.6,-4.5 11.9,-6.9c17,-10 38.1,-22.4 62.9,-37.1c-3.5,-2.8 -6.5,-5.7 -9.1,-8.2Z" style="fill:#9b2424;fill-rule:nonzero;"/><path d="M518.5,318.3c0.6,0.9 1.2,1.8 1.7,3c0.9,-0.5 1.7,-1 2.5,-1.5l-4.2,-1.5Z" style="fill:#9b2424;fill-rule:nonzero;"/></g><path d="M198.2,405.7l-53.2,35.3l13.9,4.8l53.5,-35.4c-4.7,-1.4 -9.4,-2.9 -14.2,-4.7Z" style="fill:#9b2424;fill-rule:nonzero;"/><g><path d="M137.8,371.9l-66.9,43.6l14.1,4.8l63.1,-41.1c-3.7,-2.5 -7.1,-4.9 -10.3,-7.3Z" style="fill:#9b2424;fill-rule:nonzero;"/><path d="M287.2,288.5l47.3,-30.9l-14.3,-4.7l-51.1,33.3c5.8,0.8 12,1.6 18.1,2.3Z" style="fill:#9b2424;fill-rule:nonzero;"/></g></g><g opacity="0.5"><path d="M351.3,485.5l12.5,-7.4l-290.1,-121.4c-4.8,2.3 -9.5,4.7 -13.9,6.8l291.5,122Z" style="fill:#9b2424;fill-rule:nonzero;"/><g><path d="M230,290.6l-11.3,-4.2c-4.8,2.2 -9.6,4.6 -14.6,7l17.5,6.5c3.1,-3.3 5.9,-6.6 8.4,-9.3Z" style="fill:#9b2424;fill-rule:nonzero;"/><path d="M413.9,368.6c-0.9,0.8 -1.8,1.5 -2.6,2.3l81.7,30.5l12.8,-7.6l-52.1,-19.5c-22.7,0.3 -39.8,-5.7 -39.8,-5.7Z" style="fill:#9b2424;fill-rule:nonzero;"/></g><g><path d="M494.4,330.2l-41.1,-14.7c-1.4,3.7 -3.1,7.3 -4.8,10.7l46.3,16.5c-0.9,-4.5 -0.9,-8.8 -0.4,-12.5Z" style="fill:#9b2424;fill-rule:nonzero;"/><path d="M522.3,340.1c-0.4,2.5 -1,5 -1.8,7.4c-0.5,1.3 -1,2.6 -1.5,3.7l36.6,13l13,-7.7l-46.3,-16.4Z" style="fill:#9b2424;fill-rule:nonzero;"/><g><path d="M283.5,255.2c-4.3,2 -9.3,4.5 -14.9,7.1l67.1,23.9l12.7,-7.9l-64.9,-23.1Z" style="fill:#9b2424;fill-rule:nonzero;"/></g></g><g><path d="M424.4,433.6c0.8,2.2 1.4,4.8 1.7,7.4l6.5,-3.9l-8.2,-3.5Z" style="fill:#9b2424;fill-rule:nonzero;"/><path d="M406.9,426.1l-52.2,-22.4c-7.5,2.9 -13.4,4.6 -16.9,5.4l61,26.2c1.1,-4 3.6,-7.4 8.1,-9.2Z" style="fill:#9b2424;fill-rule:nonzero;"/></g></g></g><g><path d="M404.3,279.4c7.2,0 13.2,4.8 15.3,11.3c7.2,-0.4 23,-3 32.7,-16.6c3.6,-31.9 -1.9,-67.9 -18.5,-106.1c-24.4,-55.8 -62,-79.5 -95.1,-88.9l-13.9,1c7,2.9 18.6,17.9 18.6,17.9l-54.5,1.7c9.9,17.6 2.4,31.7 2.4,31.7c-22.5,-19.7 -44.6,-15.2 -44.6,-15.2c2.5,19.3 -7.4,37.3 -7.4,37.3c-15.8,-6.3 -41.8,-36.8 -41.8,-36.8c-6.7,1.2 -37.9,25.5 -37.9,25.5c-5.2,-13.4 -6,-24.3 -5.1,-32.6c-58.1,42.4 -78.6,117.6 -57.3,182.5c29.6,89.9 113.8,121.4 206.7,112.8c-7.9,-10.3 -14.8,-24.8 -14.8,-24.8l10.6,-3.8c4.9,10.5 14.7,21.5 19.8,26.8c2.5,-0.3 5,-0.7 7.5,-1.1c62,-10 107.4,-50.4 121.7,-107.5c-7.1,4 -17.8,8.3 -29.9,7.7c-2.5,5.3 -8,9.1 -14.4,9.1c-8.9,0 -16,-7.1 -16,-16c-0.1,-8.7 7,-15.9 15.9,-15.9Zm-47.7,53c-2,0 -4,-0.4 -5.8,-1c-6.9,3.6 -25.9,11.2 -55.2,5.4c-37.5,-7.3 -66.9,-33.6 -66.9,-33.6l12.2,-11.5c0,0 31.4,24.3 56.2,29.9c19.2,4.4 36.3,0.1 43.1,-2c-0.3,-1.2 -0.5,-2.5 -0.5,-4c0,-9.3 7.5,-16.7 16.7,-16.7c9.2,0 16.7,7.5 16.7,16.7c0,9.2 -7.2,16.8 -16.5,16.8Z" style="fill:#9b2424;fill-rule:nonzero;"/><path d="M509.2,320.3c-15.2,0.3 -8.3,24.3 -6.3,30.9c-5.6,3.6 -16.1,8.6 -35,12.6c-34.3,7.4 -63.3,-9 -63.6,-9.2l-1.4,2.4c0.2,0.1 20.2,11.5 46.7,11.5c6,0 12.3,-0.6 18.8,-2c18.8,-4.1 29.5,-9 35.5,-12.7c7.4,12.2 22.3,-33.8 5.3,-33.5Z" style="fill:#9b2424;fill-rule:nonzero;"/><path d="M220.1,66.3c0,0 -5.5,-20.4 -31.8,-41.4c0,0 8.8,-26.3 27.1,-24.7c0,0 19.1,15.3 26,51.5c0,0 23.7,-21 49.6,-20.3c0,0 -17,9.3 -25.7,31.4c0,0 42.1,-13.2 68.7,0.6c0,0 -20.4,15.4 -39.7,15.2c0,0 21.2,3.1 29.5,11.6c0,0 -45.2,0.1 -56.5,1.8c0,0 14.1,5.8 16.7,25.1c0,0 -23.3,-20.5 -49.8,-12.7c0,0 7.3,23.6 1.5,34.8c0,0 -23.9,-12.4 -28.8,-40.7c0,0 -33.1,14.3 -45,32.1c0,0 -2.7,-29.3 30.1,-47.8c0,0 -17.8,-5.8 -32.5,-0.3c0,0 32,-32.3 60.6,-16.2Z" style="fill:#249b49;fill-rule:nonzero;"/><circle cx="424.1" cy="211.8" r="13"/><circle cx="254.2" cy="247.1" r="13"/><g><path d="M360.5,259.3c-0.1,0.1 -0.3,0.1 -0.4,0.2c-5.3,2.2 -9.6,1.1 -12.2,-0.2c-2.9,-1.4 -4.4,-3.5 -4.5,-3.6l1.6,-1.3c0.2,0.3 5.4,6.8 14.2,3.2c3.6,-1.5 5.6,-4.3 6.1,-8.2c0.3,-3.1 -0.4,-5.8 -0.4,-5.8l2,-0.6c-0,-0 3.5,11.7 -6.4,16.3Z" style="fill-rule:nonzero;"/></g><g><path d="M345.3,287.1l23.3,51.1c0,0 5.6,9.5 24.2,0c17.4,-8.8 18.8,-11.5 16.6,-18.8c-1.9,-6 -21,-47.3 -21,-47.3l-43.1,15Z" style="fill:#eac3b5;fill-rule:nonzero;"/><path d="M388.416,271.999c1.465,4.224 -7.04,11.015 -18.982,15.157c-11.941,4.142 -22.825,4.075 -24.29,-0.149c-1.465,-4.224 7.04,-11.015 18.982,-15.157c11.941,-4.142 22.825,-4.075 24.29,0.149Z" style="fill:#ffede5;"/><path d="M368.8,278c7.5,-2.6 14.7,-3.6 19.2,-2.9c0.6,-1.1 0.7,-2.2 0.4,-3.2c-1.4,-4.3 -12.3,-4.3 -24.2,-0.2c-11.9,4.2 -20.5,10.9 -18.9,15.2c0.5,1.5 2.3,2.5 5,3c2,-3.8 9.3,-8.6 18.5,-11.9Z" style="fill:#f2d4c7;fill-rule:nonzero;"/></g><path d="M356.3,304c-6.2,0 -11.2,5 -11.2,11.2c0,3.1 1.2,5.9 3.3,7.9c-26.6,12.3 -53,6.7 -71.3,-0.6c-22.1,-8.9 -37.5,-22.3 -37.6,-22.4l-1.8,2.1c0.2,0.1 15.8,13.8 38.4,22.9c13.4,5.4 26.5,8 39.1,8c12.6,0 24.7,-2.7 35.9,-8.1c1.6,0.8 3.4,1.3 5.3,1.3c6.2,0 11.2,-5 11.2,-11.2c-0.1,-6.1 -5.1,-11.1 -11.3,-11.1Z" style="fill:#9b2424;fill-rule:nonzero;"/><path d="M464.5,246.3c-2.6,-7.3 -8,-12.8 -12.9,-16.3l0.5,4c3.8,3.2 7.6,7.5 9.8,13.2c3.2,8.6 1.6,17.8 -4.4,27.6c-10.9,17.6 -30.1,20.6 -42.2,20.5c-0.2,-6 -5.1,-10.7 -11.1,-10.7c-6.2,0 -11.2,5 -11.2,11.2c0,6.2 5,11.2 11.2,11.2c5.4,0 9.9,-3.8 10.9,-8.8l0.6,0c12.7,0 32.8,-3.3 44.2,-21.8c6.6,-10.6 8.1,-20.6 4.6,-30.1Z" style="fill:#9b2424;fill-rule:nonzero;"/><path d="M407.6,461.9c0,0 -13.1,-26.1 4.2,-28.6c17.3,-2.5 9,46.5 -4.2,28.6Z" style="fill:#9b2424;fill-rule:nonzero;"/><g><path d="M413.5,463.1c-41.4,-5 -71.3,-26 -88.9,-42.7c-19.1,-18.1 -28.6,-35.2 -28.7,-35.4l2.4,-1.3c0.1,0.2 9.4,17 28.2,34.8c17.3,16.4 46.5,37 87.2,41.8l-0.2,2.8Z" style="fill:#9b2424;fill-rule:nonzero;"/></g></g></g></svg>