<?xml version="1.0" encoding="UTF-8" standalone="no"?>
<!DOCTYPE svg PUBLIC "-//W3C//DTD SVG 1.1//EN" "http://www.w3.org/Graphics/SVG/1.1/DTD/svg11.dtd">
<svg width="100%" height="100%" viewBox="0 0 596 503" version="1.1" xmlns="http://www.w3.org/2000/svg" xmlns:xlink="http://www.w3.org/1999/xlink" xml:space="preserve" xmlns:serif="http://www.serif.com/" style="fill-rule:evenodd;clip-rule:evenodd;stroke-linejoin:round;stroke-miterlimit:2;">
    <g transform="matrix(1,0,0,1,0,-339.1)">
        <path d="M494.7,540.6C478.5,487.8 446.7,457.6 414.8,440.3C406.5,443.3 400.2,444.5 400.2,444.5C419.7,453 422.6,475 422.6,475C382.5,482.1 349.5,465.4 349.5,465.4C354.1,486 343.8,500.2 343.8,500.2C309.7,494.2 289.1,460.5 289.1,460.5C266.7,462.6 246.9,494.2 246.9,494.2C223.5,482.1 229.9,449.5 229.9,449.5C210.9,449.9 196.7,444.5 188.1,439.9C126.3,477.8 95.5,549.8 108.2,610.9C110.3,621 113.3,630.9 117,640.5C131,619.6 151.9,605 151.9,605L159.9,618.3C141.8,631.1 131.3,653.3 127.5,662.9C156,714.4 209.2,752.9 277.6,762.9C277.8,757.3 275.6,747.4 260.9,736.1L266.5,727.9C266.5,727.9 288.2,739 292.3,764.6C311.3,766.2 331.3,765.6 352.3,762.5C480.6,743.6 534,668.5 494.7,540.6Z" style="fill:rgb(155,36,36);fill-rule:nonzero;"/>
        <path d="M566.7,562.9C564.6,556.8 558,553.7 552,555.7C545.9,557.8 542.8,564.4 544.8,570.4C545.1,571.4 545.6,572.3 546.2,573.2C533.1,586.3 503.5,612.8 471.3,621.6L472,624.1C474.1,623.5 476.1,622.9 478.1,622.2C508.3,611.8 535.5,587.7 548.1,575.1C551.1,577.8 555.4,578.9 559.6,577.5C565.5,575.3 568.7,568.7 566.7,562.9Z" style="fill:rgb(155,36,36);fill-rule:nonzero;"/>
        <path d="M496.5,812.2C487.7,807.7 478.1,810.7 472.6,813.3C472.2,804.1 470.8,780.6 466.7,764.9C461.4,744.9 439.6,724.5 438.7,723.7L436.9,725.6C437.1,725.8 459,746.3 464.1,765.6C468.4,781.8 469.7,806.5 470,814.6C468.8,815.3 468.1,815.7 468.1,815.7C461.1,822.3 492.9,832 499.9,830.6C507,829.2 509.8,819 496.5,812.2Z" style="fill:rgb(155,36,36);fill-rule:nonzero;"/>
        <path d="M390.9,450.6C379.5,445.8 366.5,432.1 366.5,432.1C366.5,432.1 377,434.3 391.5,432.1C406,429.9 414.6,415.9 414.6,415.9C414.6,415.9 402.7,419.2 387.3,418.8C371.9,418.4 351.9,412.7 351.9,412.7C360.2,397.1 385.1,388.3 385.1,388.3C385.1,388.3 374.1,384.1 354.6,386.8C340.9,388.7 327.5,397.7 320.5,402.8C321.4,395.8 322.4,385.8 322.3,374.3C322.1,352.3 317,339.4 317,339.4C301.4,336.8 290.4,351.3 290.4,351.3C290.4,351.3 297,356.3 301.8,368.6C304.8,376.2 306.7,391 307.7,401.1C275,381.5 238.1,381.7 238.1,381.7C252,388.5 258.7,414.3 258.7,414.3C239.6,420.8 192.8,414.3 192.8,414.3C192.8,414.3 193.5,418.4 210.4,431.3C227.3,444.1 254.6,434.4 254.6,434.4C254.6,434.4 248.5,439.4 243.4,454.6C238.3,469.8 246.5,477.7 246.3,476.8C246.1,475.9 252.9,463.8 265,454.2C277.1,444.7 296,441.7 296,441.7C303.9,480.1 339.9,486.1 339.9,486.1C339.9,486.1 341,478 340.6,470.3C340.2,462.6 330.1,438.7 330.1,438.7C330.1,438.7 347,455.4 365.1,460.5C383.2,465.6 411.3,466.9 411.3,466.9C411.3,466.9 402.3,455.4 390.9,450.6Z" style="fill:rgb(36,155,73);fill-rule:nonzero;"/>
        <circle cx="458.7" cy="576.5" r="16.5"/>
        <circle cx="249.2" cy="593" r="16.5"/>
        <path d="M281.4,782.5C295.8,750.2 267.3,733.2 267.1,733L265.8,735.3C265.9,735.3 272.6,739.3 277.5,747C284.2,757.2 284.7,768.8 279,781.5C267.7,807 251.9,816.7 246.9,819.2C245.6,819.3 244.4,819.4 243.7,819.7C241,820.9 243.9,830.3 255,838.2C266.1,846.1 276.9,843.4 278.9,832.8C280.9,822.2 256.2,819.7 256.2,819.7C256.2,819.7 254.3,819.5 251.9,819.3C259.3,814.7 271.8,804.2 281.4,782.5Z" style="fill:rgb(155,36,36);fill-rule:nonzero;"/>
        <path d="M388.1,605.8L387.6,605.7L387.5,606.2C387.5,606.2 387,609.5 385.1,612.9C382.7,616.9 379.2,619 374.8,619L374.2,619C363,618.7 360.3,609.4 360.1,608.4L360,607.9L356.5,608.7L356.5,609.1C356.5,609.3 357.3,612.6 359.8,615.8C361.6,618.3 365.9,622.5 374,622.7L374.5,622.7C386.8,622.7 390.3,610.7 391,607L391.3,606.3L388.1,605.8Z" style="fill-rule:nonzero;"/>
        <path d="M149.7,618.9L148.2,616.7C131.1,628.5 122.5,649 118.4,664C115.9,672.9 114.7,681 114.1,686.5C113.1,686.8 112.1,687.1 111.1,687.7C105.6,690.9 103.7,697.9 106.8,703.4C110,708.9 117,710.8 122.5,707.7C128,704.6 129.9,697.5 126.8,692C124.7,688.3 120.8,686.2 116.7,686.2C118.6,670.6 125.5,635.7 149.7,618.9Z" style="fill:rgb(155,36,36);fill-rule:nonzero;"/>
    </g>
    <g transform="matrix(1,0,0,1,0,-339.1)">
        <path d="M511.9,441.4L525.5,408.4C525.5,408.4 526.3,405.2 521.8,404L496.4,401.7C496.4,401.7 492.3,401.7 490.3,405.5C488.7,408.6 482.8,423.3 480.5,429.1C478.7,427.4 476.1,426.2 473,426C467.5,425.7 462.8,428.9 462.6,433.1C462.4,437.3 466.7,441 472.2,441.2C476.7,441.4 480.7,439.4 482,436.3C482.1,436.1 482.1,436 482.2,435.8L490.1,416.9C490.1,416.9 490.8,414.3 494.1,414.6C497.4,414.9 515.1,416.3 515.1,416.3C515.1,416.3 518,416.2 517.4,418.9C516.9,420.8 512.9,430.1 510.8,435.1C509,433 506.2,431.6 502.7,431.4C497.2,431.1 492.5,434.3 492.3,438.5C492.1,442.7 496.4,446.4 501.9,446.6C506.6,447.1 510.8,444.7 511.9,441.4Z" style="fill-rule:nonzero;"/>
    </g>
    <g transform="matrix(1,0,0,1,0,-339.1)">
        <path d="M74.9,520.2L78.6,484.7C78.6,484.7 78.5,481.4 73.8,481.6L48.8,486.6C48.8,486.6 44.8,487.8 44,492C43.3,495.4 41.9,511.1 41.3,517.4C39.1,516.3 36.2,515.9 33.2,516.6C27.8,517.9 24.2,522.2 25.2,526.4C26.2,530.5 31.4,532.8 36.8,531.5C41.2,530.5 44.4,527.3 44.9,524C45,523.8 44.9,523.7 44.9,523.5L47.1,503.1C47.1,503.1 47,500.4 50.2,499.7C53.4,499.1 70.9,495.4 70.9,495.4C70.9,495.4 73.6,494.5 73.8,497.3C73.9,499.3 72.7,509.3 72.1,514.7C69.8,513.2 66.7,512.6 63.3,513.4C57.9,514.7 54.3,519 55.3,523.2C56.3,527.3 61.5,529.6 66.9,528.3C71.5,527.2 74.8,523.7 74.9,520.2Z" style="fill-rule:nonzero;"/>
    </g>
    <g transform="matrix(1,0,0,1,0,-339.1)">
        <path d="M96.3,403L105.6,445.8C104.1,445.6 102.6,445.7 101.1,446C95.1,447.3 91.1,452 92.1,456.4C93,460.9 98.7,463.4 104.7,462.1C110.7,460.8 114.7,456.1 113.7,451.7L104.5,409.7C104.5,409.7 115.9,408.8 119.3,413.1C122.8,417.3 119.8,424.6 119.8,424.6C119.8,424.6 125.9,420.2 125.8,414.1C125.6,408 108.4,399.8 96.3,403Z" style="fill-rule:nonzero;"/>
    </g>
    <g transform="matrix(1,0,0,1,0,-339.1)">
        <path d="M523.1,478.6L540.8,518.6C539.4,518.8 537.9,519.1 536.4,519.8C530.8,522.3 527.8,527.6 529.6,531.9C531.5,536.1 537.4,537.4 543,534.9C548.6,532.4 551.6,527.1 549.8,522.8L532.4,483.6C532.4,483.6 543.4,480.5 547.6,483.9C551.9,487.3 550.3,495 550.3,495C550.3,495 555.3,489.4 554.1,483.6C553,477.6 534.5,473 523.1,478.6Z" style="fill-rule:nonzero;"/>
    </g>
</svg>
