<?xml version="1.0" encoding="UTF-8" standalone="no"?><!DOCTYPE svg PUBLIC "-//W3C//DTD SVG 1.1//EN" "http://www.w3.org/Graphics/SVG/1.1/DTD/svg11.dtd"><svg width="100%" height="100%" viewBox="0 0 596 503" version="1.1" xmlns="http://www.w3.org/2000/svg" xmlns:xlink="http://www.w3.org/1999/xlink" xml:space="preserve" xmlns:serif="http://www.serif.com/" style="fill-rule:evenodd;clip-rule:evenodd;stroke-linejoin:round;stroke-miterlimit:2;"><g><g><g><path d="M97,450.3c0,0 -4.9,29.5 3.2,37.7c7.9,7.9 400.9,-1.3 402.9,-4.9c5.5,-10.6 0,-35.4 0,-35.4l-383.3,2.7l-22.8,-0.1Z" style="fill:#473424;fill-rule:nonzero;"/><g><path d="M254.4,353.3c0.2,0 0.2,0 0,0Z" style="fill:#674427;fill-rule:nonzero;"/><path d="M249.2,353.5c1.8,-0.1 3.4,-0.1 5.2,-0.2c-1.7,0 -3.5,0.2 -5.2,0.2Z" style="fill:#674427;fill-rule:nonzero;"/><path d="M247.5,353.6c0.6,0 1.3,0 1.9,-0.1c-0.7,0 -1.3,0.1 -1.9,0.1Z" style="fill:#674427;fill-rule:nonzero;"/><path d="M273.1,352.7l0.7,0l-0.7,0Z" style="fill:#674427;fill-rule:nonzero;"/><path d="M273.8,352.7c2.1,-0.1 4,-0.1 6.2,-0.2c-2.3,0.1 -4.4,0.1 -6.2,0.2Z" style="fill:#674427;fill-rule:nonzero;"/><path d="M242.5,353.7c1.8,-0.1 3.2,-0.1 4.9,-0.2c-1.6,0.1 -3.4,0.2 -4.9,0.2Z" style="fill:#674427;fill-rule:nonzero;"/><path d="M254.6,353.3c6,-0.2 12.2,-0.4 18.5,-0.6c-6.4,0.3 -12.5,0.5 -18.5,0.6Z" style="fill:#674427;fill-rule:nonzero;"/><path d="M214.5,388.3c0.2,-0.1 0.5,-0.1 0.6,-0.2c-0.2,0.1 -0.3,0.2 -0.6,0.2Z" style="fill:#674427;fill-rule:nonzero;"/><path d="M279.9,352.6l0.4,0l-0.4,0Z" style="fill:#674427;fill-rule:nonzero;"/><path d="M214.4,388.3c0.1,0 0,0 0,0Z" style="fill:#674427;fill-rule:nonzero;"/><path d="M214.2,354.5c6.5,-0.2 13.7,-0.4 21,-0.6c-7.3,0.3 -14.5,0.5 -21,0.6Z" style="fill:#674427;fill-rule:nonzero;"/><path d="M235.2,354c0.9,0 1.9,-0.1 2.8,-0.1c-1,-0.1 -1.8,-0.1 -2.8,0.1Z" style="fill:#674427;fill-rule:nonzero;"/><path d="M237.8,353.8c1,0 2.2,-0.1 3.3,-0.1c-1,0.1 -2,0.1 -3.3,0.1Z" style="fill:#674427;fill-rule:nonzero;"/><path d="M241.2,353.8l1.1,0c-0.2,-0.1 -0.7,0 -1.1,0Z" style="fill:#674427;fill-rule:nonzero;"/><path d="M385.6,428.3c0,0 -158.2,1.4 -165,0c-6.8,-1.4 -3.7,-32.6 -3.7,-32.6l-2.4,-7.4c-0.9,0.2 -1.8,0.3 -2.6,0.3c-6.3,0 -11.6,-4.6 -12.6,-10.7c-5.7,-2.5 -18.1,-9.1 -27.1,-22.2c-7.4,0.2 -11.6,0.4 -11.6,0.4c-7.5,0 -15.2,0.6 -26.1,8.9c-11,8.3 -48.2,85.3 -34.8,95.9c10.7,13.4 398.8,12 403.4,-10.6c2.7,-10.2 -37.9,-100.4 -49.5,-101.7c-1.5,-0.2 -7.7,-0.2 -17,-0.1c-7.2,10.2 -19.5,24.8 -33.8,29.6c-0.7,5.2 -4.2,11.1 -9.6,12.1c0,0.1 5.7,38.1 -7.6,38.1Zm-193.3,19.3c-28.3,7.2 -41.9,-11.7 -45.1,-19.4c-3,-7.8 -10,-24.8 5.8,-37.5c0,0 17.3,-13.7 39.6,-1.8c18.6,10.2 27.9,51.6 -0.3,58.7Z" style="fill:#674427;fill-rule:nonzero;"/><path d="M387.8,349.6l0.2,0l-0.2,0Z" style="fill:#674427;fill-rule:nonzero;"/><path d="M312.8,351.6l0.2,0l-0.2,0Z" style="fill:#674427;fill-rule:nonzero;"/><path d="M313,351.6c4.3,-0.1 8.6,-0.2 12.8,-0.4c-4.2,0.2 -8.4,0.3 -12.8,0.4Z" style="fill:#674427;fill-rule:nonzero;"/><path d="M325.8,351.2l0.4,0l-0.4,0Z" style="fill:#674427;fill-rule:nonzero;"/><path d="M280.3,352.6c10.7,-0.3 21.6,-0.6 32.6,-0.9c-11,0.3 -21.8,0.6 -32.6,0.9Z" style="fill:#674427;fill-rule:nonzero;"/><path d="M358.3,350.4c10.3,-0.3 20.4,-0.6 29.6,-0.9c-9.4,0.4 -19.3,0.6 -29.6,0.9Z" style="fill:#674427;fill-rule:nonzero;"/><path d="M358.1,350.4c0,0 0.2,0 0,0c0.2,0 0,0 0,0Z" style="fill:#674427;fill-rule:nonzero;"/><path d="M326.2,351.2c10.8,-0.3 21.6,-0.6 31.9,-0.9c-10.3,0.4 -21,0.6 -31.9,0.9Z" style="fill:#674427;fill-rule:nonzero;"/></g><g><path d="M375.6,76.5c-7.4,2.2 -9.7,5.7 -9.7,5.7c16.1,12.8 10.6,35.9 10.6,35.9c-16.9,-11.8 -46.7,-14.8 -46.7,-14.8c14,13.9 8.1,48 8.1,48c-28.1,1.5 -63.3,-36.2 -63.3,-36.2c-9.8,17.9 -40.5,33.2 -40.5,33.2c-11.8,-15.9 -10,-50.2 -10,-50.2c-15.1,-0.5 -35.7,2.6 -50.1,5.2c-31.9,29.3 -51.8,70.2 -51.8,115.4c0,31.7 9.7,61.3 26.6,86.3c-2.7,-30.8 11.1,-46.7 11.1,-46.7l11.3,5.5c0,0 -10,13.5 -9.6,38.2c0.2,9.8 2.4,18 4.6,24.2c9.8,10.2 21,19.3 33.1,26.9l4,-0.1c-6.5,-24 -17.3,-67.9 -9.4,-79.3c11.1,-15.6 197.6,-12.2 208.7,0c5.8,6.3 3.3,40 -0.4,70.3c14.2,-10.8 26.6,-23.7 36.6,-38.2c0.4,-10 -0.7,-25.9 -8.5,-40.2l11.1,-5.8c0,0 6.3,6.7 9.6,24.9c9.7,-20.2 15.2,-42.7 15.2,-66.3c-0,-61.4 -36.7,-114.6 -90.6,-141.9Z" style="fill:#9b2424;fill-rule:nonzero;"/><path d="M282.6,50.4c0,0 -5.2,-24.1 -20.5,-30.6c0,0 19.5,-8.7 28.1,-6.8c8.5,1.9 12.5,34.9 12.5,34.9c0,0 42.3,-17.1 70.8,-1.9c0,0 -32.7,13.3 -41.5,28.1c0,0 16.4,5.3 25,11.8c8.7,6.5 13.4,19.1 13.4,19.1c0,0 -35.4,-18.3 -61.3,-15.5c0,0 19.7,23.9 22,47.3c0,0 -25.7,-7 -36,-18.8c-10.3,-11.7 -12.2,-19.9 -17.6,-22.3c0,0 -28.8,33.1 -38,34.8c0,0 -7.4,-17.1 5.3,-42.8c0,0 -37.3,0.4 -50.2,4c0,0 9.2,-23.9 53,-29.7c0,0 -21.5,-16.1 -36,-15.1c-0.6,-0.1 24.6,-20.6 71,3.5Z" style="fill:#249b49;fill-rule:nonzero;"/><circle cx="379.7" cy="217.7" r="10.6"/><circle cx="204.6" cy="217.7" r="10.6"/><g><path d="M294.7,242.8l-0.4,0c-4.6,-0.1 -7.4,-2.5 -8.9,-4.2c-1.6,-2 -2.1,-4 -2.1,-4l1.8,-0.4c0.1,0.3 1.8,6.8 9.3,6.9c3.1,0.1 5.7,-1.3 7.2,-4c1.3,-2.2 1.6,-4.3 1.6,-4.5l1.8,0.2c-0.1,0.3 -1.5,10 -10.3,10Z" style="fill-rule:nonzero;"/></g><path d="M212.2,367.9c-3.3,0 -6.2,2 -7.8,4.9c-5,-2 -11.1,-5.4 -17.1,-10.6c-8.5,-6.9 -19.9,-19.5 -26.3,-38.8c-11.3,-34.1 1.4,-53.9 1.5,-54.1l-2.6,-1.8c-0.6,0.9 -13.7,21 -1.9,56.4c9.5,28.5 30.8,45.7 45.7,51.3l0,0.5c0,4.6 3.7,8.4 8.4,8.4c4.6,0 8.4,-3.7 8.4,-8.4c0.1,-4 -3.7,-7.8 -8.3,-7.8Z" style="fill:#9b2424;fill-rule:nonzero;"/><path d="M439.5,323.4c11.3,-34.1 -1.4,-53.9 -1.5,-54.1l2.6,-1.8c0.6,0.9 13.7,21 1.9,56.4c-9.5,28.5 -30.8,45.7 -45.7,51.3l0,0.5c0,4.6 -3.7,8.4 -8.4,8.4c-4.7,0 -8.4,-3.7 -8.4,-8.4c-0.1,-4.1 3.8,-7.9 8.4,-7.9c3.3,0 6.2,2 7.8,4.9c-0,0 33.6,-15.6 43.3,-49.3Z" style="fill:#9b2424;fill-rule:nonzero;"/></g><g><path d="M384.2,421.9l-159.7,0c-2.1,0 -3.7,-1.8 -3.7,-3.7l0,-15.5c0,-2.1 1.8,-3.7 3.7,-3.7l159.6,0c2.1,0 3.7,1.8 3.7,3.7l0,15.5c0,1.9 -1.7,3.7 -3.6,3.7Z" style="fill:#96eaac;fill-rule:nonzero;"/><path d="M385.3,393.8l-162.1,0c0,0 -30.3,-94.6 -19.3,-113.6c4.7,-8.1 179.6,-8.1 190.7,-1.8c8.6,5.1 -9.3,115.4 -9.3,115.4Z" style="fill:#96eaac;fill-rule:nonzero;"/><g><path d="M307.9,325.9c-0.9,-0.4 -2.2,-1.8 -2.2,-1.8c0,0 0.9,0.2 2.4,0c1.3,-0.2 2.1,-1.5 2.1,-1.5c0,0 -1,0.3 -2.5,0.3c-1.5,0 -3.2,-0.6 -3.2,-0.6c0.9,-1.4 3,-2.2 3,-2.2c0,0 -0.9,-0.4 -2.8,-0.1c-1.3,0.2 -2.5,0.9 -3,1.5c0.1,-0.6 0.2,-1.6 0.2,-2.6c0,-2 -0.5,-3.1 -0.5,-3.1c-1.4,-0.2 -2.5,1 -2.5,1c0,0 0.6,0.5 0.9,1.6c0.3,0.7 0.4,2.1 0.5,3c-3,-1.9 -6.2,-1.9 -6.2,-1.9c1.3,0.6 1.9,3 1.9,3c-1.9,0.6 -6,0 -6,0c0,0 0.1,0.4 1.6,1.6c1.5,1.1 4,0.3 4,0.3c0,0 -0.6,0.5 -0.9,1.9c-0.3,1.4 0.3,2.1 0.3,2c0,-0.1 0.6,-1.1 1.8,-2.1c1,-0.9 2.8,-1 2.8,-1c0.7,3.4 3.9,4 3.9,4c0,0 0.1,-0.7 0.1,-1.4c0,-0.7 -0.9,-2.9 -0.9,-2.9c0,0 1.6,1.5 3.1,2c1.8,0.5 4.1,0.6 4.1,0.6c0,0 -0.7,-1.4 -2,-1.6Z" style="fill:#c95b5e;fill-rule:nonzero;"/><path d="M317.5,333.8c-1.6,-5 -4.7,-7.9 -7.9,-9.4c-0.5,0.4 -0.9,0.5 -0.9,0.5c1.8,0.9 2,3.1 2,3.1c-3.2,0.4 -6.5,-0.9 -6.5,-0.9c0.1,1.9 -0.9,3 -0.9,3c-2.8,-0.6 -5,-3.7 -5,-3.7c-1.5,0.4 -3.3,3 -3.3,3c-1.9,-1.8 -0.9,-4.1 -0.9,-4.1c-1.8,0.2 -3.3,-0.3 -4.5,-0.7c-5.7,3.4 -8.5,9.8 -7.4,15.5c1.9,8.7 10.5,15.3 22.2,13.7c11.7,-1.5 16.6,-8.3 13.1,-20Z" style="fill:#c95b5e;fill-rule:nonzero;"/></g></g><path d="M204.1,419c0,0 -12,-4.5 -24.2,-1.6c-12.2,3 -23.1,13.4 -23.1,13.4c3,3.8 9.6,16.6 31.3,11.6c21.6,-5.2 16,-23.4 16,-23.4Zm-23,18.9l-5.9,-15.6c0,0 4.9,-4.1 10.5,-4l7.2,15c-0.2,0 -6.4,5.5 -11.8,4.6Z" style="fill:#9b2424;fill-rule:nonzero;"/><path d="M154.3,428.3c0,0 11.2,-10.6 24.3,-14c13.4,-3.3 25.2,2.4 25.2,2.4c0,0 -6.2,-30.6 -33.8,-26.7c-27.5,3.7 -20,32.1 -15.7,38.3Z" style="fill:#9b2424;fill-rule:nonzero;"/><path d="M178.2,424.4c0,0 3.2,-2.8 6.8,-2.7l4.8,9.8c0,0 -4.1,3.5 -7.8,3.1l-3.8,-10.2Z" style="fill:#9b2424;fill-rule:nonzero;"/></g><path d="M398.9,349.4c-0.4,4.1 -1,9.4 -1.6,15.1c0.7,0.6 1.3,1.1 1.9,1.9c4,-2 12.8,-7.2 19.4,-17.4c-5.9,0.1 -12.7,0.2 -19.7,0.4Z" style="fill:#674427;fill-rule:nonzero;"/><path d="M204.1,354.9c-6.8,0.2 -13.3,0.4 -18.7,0.6c4,3.8 10.7,9.4 17.1,11.7c1.1,-1.3 2.8,-2.5 4.3,-3.1l-2.7,-9.2Z" style="fill:#674427;fill-rule:nonzero;"/></g></g><g><g><path d="M476.6,91.8l15.7,12.6c0,0 9.6,-5.4 14.2,-5.7c4.5,-0.3 19.9,-3.6 26,-9.6c6.2,-6 10.6,-19.9 9,-29c-1.6,-9.1 -10.9,-27.5 -33.9,-27.5c-23,0 -32.5,23.7 -32.5,27.5c0,3.9 2.8,18.7 3.4,21.1c0.8,2.5 -1.9,10.6 -1.9,10.6Z" style="fill:#ffd837;fill-rule:nonzero;"/><path d="M486.6,111.1l-15.7,-12.4c-0.6,-0.5 -0.7,-1.3 -0.2,-1.9l1.5,-1.9c0.5,-0.6 1.3,-0.7 1.9,-0.2l15.7,12.5c0.6,0.5 0.7,1.3 0.2,1.9l-1.5,1.9c-0.3,0.6 -1.3,0.6 -1.9,0.1Z" style="fill:#ffd837;fill-rule:nonzero;"/><g><path d="M491.5,105.6c-0.4,-0.2 -0.7,-0.3 -1,-0.6l-13.7,-10.8c-1.6,-1.3 -2,-3.7 -0.9,-5.5c0.3,-0.6 1.8,-4.5 0.4,-11.2c-0.2,-1.1 -0.6,-2.5 -0.9,-3.6c-1.9,-7.4 -4.5,-16.5 5.9,-29.7c7.5,-9.6 25.5,-16.1 40.5,-10.3c6,2.4 11,6.2 15.1,11.9c7.4,10.3 9.1,20.7 5.1,31.1c-3.6,9.2 -10.5,15.1 -12.7,16.7c-4.7,3.6 -10.9,4.6 -17,5.6c-6.2,0.9 -12,1.9 -16,5.6c-1.5,0.9 -3.2,1.4 -4.8,0.8Zm28.9,-69c-13.7,-5.2 -30.3,0.6 -37,9.4c-9.4,12.1 -7.2,20.1 -5.4,27.1c0.3,1.3 0.7,2.6 0.9,3.7c1.8,8.5 -0.6,13.2 -0.7,13.3l-0.1,0.2c-0.3,0.5 -0.3,1 0.2,1.4l13.7,10.8c0.5,0.3 1,0.3 1.4,-0.2l0.1,-0.2c4.6,-4.4 11.2,-5.4 17.6,-6.3c5.6,-0.9 11.6,-1.9 15.6,-5c2.6,-1.9 24.1,-19.6 7,-43.7c-3.1,-4.8 -7.8,-8.3 -13.3,-10.5Z" style="fill:#ffd837;fill-rule:nonzero;"/></g><path d="M482.8,116.2l-15.6,-12.4c-0.6,-0.5 -0.7,-1.3 -0.2,-1.9l1.5,-1.9c0.5,-0.6 1.3,-0.7 1.9,-0.2l15.7,12.5c0.6,0.5 0.7,1.3 0.2,1.9l-1.5,1.9c-0.6,0.3 -1.6,0.5 -2,0.1Z" style="fill:#ffd837;fill-rule:nonzero;"/><path d="M478.8,121.3l-15.7,-12.5c-0.6,-0.5 -0.7,-1.3 -0.2,-1.9l1.5,-1.9c0.5,-0.6 1.3,-0.7 1.9,-0.2l15.7,12.5c0.6,0.5 0.7,1.3 0.2,1.9l-1.5,1.9c-0.6,0.6 -1.4,0.6 -1.9,0.2Z" style="fill:#ffd837;fill-rule:nonzero;"/><g><path d="M486.4,94.8l-0.9,-1.3c1.3,-0.9 3.9,-3.1 5.5,-5.2c-2.5,-0.2 -4.7,-1.1 -6.1,-2.7c-1.5,-1.8 -1.9,-4 -0.9,-6.3c1,-2.7 3,-2.7 4.1,-2.7c3.1,0.6 6.3,5 6.4,8c0,0.5 -0.1,0.9 -0.2,1.5c3.5,-1 5.4,-3.6 6,-6.9c-1.1,0.1 -2.6,-0.1 -4,-0.7c-2.6,-1.1 -5.4,-3.9 -5.5,-7.1c-0.1,-2 1,-3.6 3.1,-3.9c3,-0.4 6.6,1.9 7.8,6.3c0.2,0.9 0.3,1.5 0.4,2.4c2.1,-2.6 0.6,-7.7 -0.1,-9.9c-1.1,-3.6 5.9,-9.2 7.5,-10.2l1,1.4c-3.1,2.5 -7.4,6.4 -6.9,8.2c0.9,2.7 2.9,9.2 -1,12.3c-0.2,0.1 -0.4,0.2 -0.6,0.4c-0.3,4.5 -3,7.8 -7.6,9.2c-0.4,0.1 -0.9,0.2 -1.3,0.3c-2.1,3.4 -6.2,6.4 -6.7,6.9Zm1.4,-16.3c-0.2,0 -0.3,-0.1 -0.5,-0.1c-0.6,-0.1 -1.3,-0.1 -2,1.4c-0.9,2 -0.1,3.6 0.7,4.5c1.3,1.4 3.7,2.5 5.9,2.4c0.3,-0.6 0.5,-1.1 0.5,-1.8c-0.3,-2.6 -2.4,-5.7 -4.6,-6.4Zm7.8,-8.8c-0.7,-0.2 -1.3,-0.3 -1.9,-0.3c-0.7,0.1 -1.6,0.5 -1.6,1.9c0.2,2.5 2.5,4.6 4.5,5.6c1.1,0.5 2.5,0.7 3.2,0.5c0,-0.9 -0.2,-1.9 -0.4,-3c-0.5,-2.5 -2.2,-4.2 -3.8,-4.7Z" style="fill:#540;fill-rule:nonzero;"/></g></g></g><g><path d="M439.7,60.1c0,0 20.6,-0.2 22,1.9c1.4,2.2 -17.8,9.6 -20.1,8.6c-2.2,-1 -6.5,-9.2 -1.9,-10.5Z" style="fill:#9b2424;fill-rule:nonzero;"/><path d="M456.6,21.4c0,0 15.1,14.7 14.6,17.2c-0.5,2.5 -19.9,-5.7 -20.7,-8.2c-1.1,-2.3 1.7,-11.4 6.1,-9Z" style="fill:#9b2424;fill-rule:nonzero;"/><path d="M491.8,3.1c0,0 -0.4,19.4 -2.6,20.6c-2.1,1.3 -8.6,-17.1 -7.7,-19.2c1.3,-2 9.1,-5.9 10.3,-1.4Z" style="fill:#9b2424;fill-rule:nonzero;"/><path d="M569.5,46.7c0,0 -18.8,5.4 -20.6,3.7c-1.9,-1.6 14,-13.2 16.2,-12.8c2.4,0.3 8.5,7 4.4,9.1Z" style="fill:#9b2424;fill-rule:nonzero;"/><path d="M562,94.8c0,0 -15.2,-12.1 -15.1,-14.6c0.2,-2.5 18.8,3.5 20.1,5.6c1,2 -0.7,10.7 -5,9Z" style="fill:#9b2424;fill-rule:nonzero;"/><path d="M532,126.2c0,0 -5.4,-18.7 -3.7,-20.6c1.6,-1.9 13.3,13.8 12.8,16.2c-0.2,2.3 -6.5,8.3 -9.1,4.4Z" style="fill:#9b2424;fill-rule:nonzero;"/><path d="M502.6,129.6c0,0 4.5,-18.9 6.7,-19.8c2.5,-0.9 4.9,18.6 3.5,20.4c-1.4,2.1 -10,3.9 -10.2,-0.6Z" style="fill:#9b2424;fill-rule:nonzero;"/><path d="M537.2,6.2c0,0 -8.7,17.3 -11.2,17.7c-2.5,0.4 -0.5,-19.1 1.3,-20.6c2,-1.5 10.9,-1.5 9.9,2.9Z" style="fill:#9b2424;fill-rule:nonzero;"/></g></svg>